/* XPM */
static char const *cursor_gradient_add_xpm[] = {
"32 32 3 1 4 4",
" 	c None",
".	c #FFFFFF",
"+	c #000000",
"   ...                          ",
"   .+.                          ",
"   .+.                          ",
"....+....                       ",
".+++ +++.                       ",
"....+....                       ",
"   .+.                          ",
"   .+.  .....                   ",
"   ...  .+++.                   ",
"        .+.+.                   ",
"        .+++.                   ",
"         .+.                    ",
"         .+.                    ",
"         .+.                    ",
"         .+.                    ",
"        .+++.                   ",
"        .+.+.                   ",
"        .+++.                   ",
"        .....                   ",
"                    ...         ",
"                    .+.         ",
"                    .+.         ",
"                    .+.         ",
"                    .+.         ",
"               ......+......    ",
"               .+++++++++++.    ",
"               ......+......    ",
"                    .+.         ",
"                    .+.         ",
"                    .+.         ",
"                    .+.         ",
"                    ...         "};
