/* XPM */
static char const *cursor_ellipse_xpm[] = {
"32 32 5 1 4 4",
" 	c None",
".	c #FFFFFF",
"%	c Stroke",
"*	c Fill",
"+	c #000000",
"   ...                          ",
"   .+.                          ",
"   .+.                          ",
"....+....                       ",
".+++ +++.                       ",
"....+....                       ",
"   .+.                          ",
"   .+.       .......            ",
"   ...    ....%%%%%....         ",
"         ..%%%*****%%%..        ",
"        ..%***********%..       ",
"       ..%*************%..      ",
"       .%***************%.      ",
"       .%***************%.      ",
"       .%***************%.      ",
"       ..%*************%..      ",
"        ..%***********%..       ",
"         ..%%%*****%%%..        ",
"          ....%%%%%....         ",
"             .......            ",
"                                ",
"                                ",
"                                ",
"                                ",
"                                ",
"                                ",
"                                ",
"                                ",
"                                ",
"                                ",
"                                ",
"                                "};
