/* XPM */
static const char * cursor_3dbox_xpm[] = {
"32 32 3 1 4 4",
" 	c None",
".	c #FFFFFF",
"+	c #000000",
"   ...                          ",
"   .+.                          ",
"   .+.                          ",
"....+....                       ",
".+++ +++.                       ",
"....+....       .               ",
"   .+.        ..+..             ",
"   .+.      ..++.++..           ",
"   ...    ..++.....++..         ",
"         .++.........++.        ",
"        .+.............+.       ",
"        .++...........++.       ",
"        .+.++.......++.+.       ",
"        .+...+.....+...+.       ",
"        .+....++.++....+.       ",
"        .+......+......+.       ",
"         .+.....+.....+.        ",
"         .+.....+.....+.        ",
"         .+.....+.....+.        ",
"         .+.....+.....+.        ",
"          .++...+...++.         ",
"           ..+..+..+..          ",
"             .+++++.            ",
"              ..+..             ",
"                .               ",
"                                ",
"                                ",
"                                ",
"                                ",
"                                ",
"                                ",
"                                "};
