/* XPM */
static char const * cursor_tweak_scale_up_xpm[] = {
"32 32 3 1 4 4",
" 	c None",
".	c #FFFFFF",
"+	c #000000",
"   ...                          ",
"   .+.                          ",
"   .+.           .++++++++++++  ",
"....+....        .+.         +  ",
".+++ +++.        .+.         +  ",
"....+....        .+.         +  ",
"   .+.           .+.         +  ",
"   .+.           .+.         +  ",
"   ...           .+.         +  ",
"                 .+.         +  ",
"                 .+.         +  ",
"                 .+.         +  ",
"                 .+..........+  ",
"                 .++++++++++++  ",
"                 .............  ",
"                                ",
"           +++++                ",
"              ++                ",
"             +.+                ",
"            +..+                ",
"           +. .+                ",
"          +.   .                ",
"         +.                     ",
"                                ",
"  .+++++                        ",
"  .+.  +                        ",
"  .+.  +                        ",
"  .+...+                        ",
"  .+++++                        ",
"  ......                        ",
"                                ",
"                                "};
