/* XPM */
static const char * cursor_dropper_s_xpm[] = {
"32 32 4 1 5 5",
" 	c None",
".	c #FFFFFF",
"+	c #000000",
"@	s Fill",
"    ...          ...............",
"    .+.          .+++++++++++++.",
"    .+.          .+@@@@@@@@@@@+.",
"    .+.          .+@@@@@@@@@@@+.",
"....   ....      .+@@+++++++@@+.",
".+++   +++.      .+@@+.....+@@+.",
"....   ....      .+@@+.   .+@@+.",
"    .+.     ...  .+@@+.   .+@@+.",
"    .+.    .+++. .+@@+.   .+@@+.",
"    .+.   .+..++..+@@+.....+@@+.",
"    ...   .+.++++.+@@+++++++@@+.",
"        ..+.+++++.+@@@@@@@@@@@+.",
"       .++.++++++.+@@@@@@@@@@@+.",
"      .++.++++++..+++++++++++++.",
"       .++++++.. ...............",
"      .+.++++.                  ",
"     .+..++++.                  ",
"    .+..++.+.                   ",
"   .+..++. .                    ",
"  .+++++.                       ",
" .+++++.                        ",
".+++++.                         ",
".++++.                          ",
".+++.                           ",
"....                            ",
"  .+.                           ",
" .+++.                          ",
".++..+.                         ",
".+++.+.                         ",
".+++++.                         ",
" .+++.                          ",
"  ...                           "};
